<svg xmlns="http://www.w3.org/2000/svg" width="113.555" height="101.935" viewBox="0 0 113.555 101.935">
  <g id="Group_67473" data-name="Group 67473" transform="translate(0 0)">
    <path id="Path_14593" data-name="Path 14593" d="M432.363,233.144a.2.2,0,0,1-.114-.036l-55.1-38.37a1,1,0,0,0-1.141,0l-54.7,38.368a.2.2,0,0,1-.229-.326l54.7-38.368a1.4,1.4,0,0,1,1.6,0l55.1,38.37a.2.2,0,0,1-.114.363Z" transform="translate(-319.804 -194.163)" fill="#3f3d56"/>
    <path id="Path_14594" data-name="Path 14594" d="M23.264,47l52.2-38.685,52.594,41.438-49.9,29.584L51.057,73.165Z" transform="translate(-18.629 -6.662)" fill="#e6e6e6"/>
    <path id="Path_14595" data-name="Path 14595" d="M380.759,641.019H354.972a1.2,1.2,0,0,1,0-2.41h25.787a1.2,1.2,0,0,1,0,2.41Z" transform="translate(-346.044 -550.067)" fill="#6c63ff"/>
    <path id="Path_14596" data-name="Path 14596" d="M364.224,615.019h-9.252a1.2,1.2,0,1,1,0-2.409h9.252a1.2,1.2,0,1,1,0,2.409Z" transform="translate(-346.044 -529.247)" fill="#6c63ff"/>
    <path id="Path_14597" data-name="Path 14597" d="M472.263,277.012a1.507,1.507,0,0,1-.572-.112L439.5,263.542V221.732a1.4,1.4,0,0,1,1.395-1.395h61.758a1.4,1.4,0,0,1,1.395,1.395v41.84l-.06.026-31.134,13.3A1.517,1.517,0,0,1,472.263,277.012Z" transform="translate(-414.697 -215.123)" fill="#fff"/>
    <path id="Path_14598" data-name="Path 14598" d="M471.863,276.711a1.608,1.608,0,0,1-.61-.119L439,263.209V221.331a1.5,1.5,0,0,1,1.494-1.494h61.758a1.5,1.5,0,0,1,1.494,1.494v41.906l-31.255,13.347A1.615,1.615,0,0,1,471.863,276.711ZM439.4,262.943l32.007,13.281a1.219,1.219,0,0,0,.93-.006l31.012-13.244V221.331a1.1,1.1,0,0,0-1.1-1.1H440.494a1.1,1.1,0,0,0-1.1,1.1Z" transform="translate(-414.297 -214.723)" fill="#3f3d56"/>
    <path id="Path_14599" data-name="Path 14599" d="M427.16,387.837h-.04L404.25,397.6l-31.291,13.362a1.009,1.009,0,0,1-.773,0L339.9,397.575l-23.432-9.722-.036-.016h-.04A1.4,1.4,0,0,0,315,389.232v60.563a1.4,1.4,0,0,0,1.395,1.395H427.16a1.4,1.4,0,0,0,1.395-1.395V389.232A1.4,1.4,0,0,0,427.16,387.837Zm1,61.957a1,1,0,0,1-1,1H316.395a1,1,0,0,1-1-1V389.232a1,1,0,0,1,.958-1l23.546,9.77,32.13,13.332a1.419,1.419,0,0,0,1.084-.006l31.134-13.3,22.95-9.8a1,1,0,0,1,.956,1Z" transform="translate(-315 -349.254)" fill="#3f3d56"/>
    <path id="Path_14600" data-name="Path 14600" d="M530.274,283.829a5.478,5.478,0,0,1-3.3-1.095l-.059-.044-12.414-9.5a5.515,5.515,0,0,1,6.709-8.755l8.041,6.165,19-24.78a5.515,5.515,0,0,1,7.732-1.021l-.118.16.121-.158a5.521,5.521,0,0,1,1.021,7.732l-22.35,29.147A5.517,5.517,0,0,1,530.274,283.829Z" transform="translate(-473.03 -233.796)" fill="#6c63ff"/>
  </g>
</svg>
