<svg xmlns="http://www.w3.org/2000/svg" width="106" height="92.643" viewBox="0 0 106 92.643">
  <path id="Union_18" data-name="Union 18" d="M62.047,91.255a32.114,32.114,0,0,0-25.572-.1l-.217.1A16.337,16.337,0,0,1,15.93,67.483l11.493-17.93a25.81,25.81,0,0,1,43.461,0l11.493,17.93A16.337,16.337,0,0,1,72.259,92.227a16.448,16.448,0,0,1-3.657.415A16.242,16.242,0,0,1,62.047,91.255ZM82.99,62.1C77.079,57.724,76.3,48.705,81.263,42s13.82-8.6,19.74-4.228l0,0c5.913,4.379,6.688,13.4,1.728,20.108A15.743,15.743,0,0,1,90.3,64.462,12.173,12.173,0,0,1,82.99,62.1ZM1.132,40.2c-3-7.795.157-16.281,7.024-18.922a12.53,12.53,0,0,1,10.623.855,16.2,16.2,0,0,1,7.274,8.472,16.185,16.185,0,0,1,.285,11.163,12.528,12.528,0,0,1-7.314,7.759,11.87,11.87,0,0,1-4.281.794C9.1,50.323,3.524,46.407,1.132,40.2Zm67.084-.361h0c-7.482-2.488-11.269-11.431-8.442-19.935a17.4,17.4,0,0,1,7.383-9.465,13.161,13.161,0,0,1,19.513,6.485,17.4,17.4,0,0,1,.248,12c-2.328,7-8.43,11.561-14.691,11.561A12.691,12.691,0,0,1,68.217,39.841Zm-42.459-22.1C25.757,7.959,32.742,0,41.326,0S56.9,7.959,56.9,17.743s-6.984,17.739-15.57,17.739S25.757,27.525,25.757,17.743Z" transform="translate(0)" fill="rgba(160,190,31,0.15)"/>
</svg>
