<svg xmlns="http://www.w3.org/2000/svg" width="300.86" height="258.17" viewBox="0 0 300.86 258.17">
  <g id="Group_67480" data-name="Group 67480" transform="translate(0 0)">
    <path id="Path_438" data-name="Path 438" d="M309.281,658.411a10.7,10.7,0,0,0,10.333-1.82c3.619-3.038,4.754-8.041,5.677-12.674l2.731-13.706-5.717,3.937c-4.112,2.831-8.316,5.753-11.162,9.853s-4.089,9.7-1.8,14.135" transform="translate(-286.689 -421.491)" fill="#e6e6e6"/>
    <path id="Path_439" data-name="Path 439" d="M311.288,690.723c-.72-5.243-1.46-10.553-.954-15.852a24.934,24.934,0,0,1,4.807-13.071,21.742,21.742,0,0,1,5.579-5.055c.558-.352,1.071.532.516.882a20.672,20.672,0,0,0-8.177,9.866,33.135,33.135,0,0,0-1.759,14.273c.185,2.909.579,5.8.975,8.684a.529.529,0,0,1-.357.629.514.514,0,0,1-.629-.357Z" transform="translate(-287.813 -436.254)" fill="#f2f2f2"/>
    <path id="Path_442" data-name="Path 442" d="M324.424,703.932a7.877,7.877,0,0,0,6.863,3.543c3.475-.165,6.371-2.589,8.978-4.892l7.712-6.809-5.1-.244c-3.671-.176-7.436-.341-10.932.792s-6.72,3.856-7.359,7.475" transform="translate(-295.77 -457.876)" fill="#e6e6e6"/>
    <path id="Path_443" data-name="Path 443" d="M308.015,720.579c3.464-6.13,7.482-12.942,14.663-15.12a16.361,16.361,0,0,1,6.167-.637c.655.057.491,1.066-.162,1.01a15.2,15.2,0,0,0-9.842,2.6,25.582,25.582,0,0,0-6.764,7.3c-1.12,1.706-2.124,3.484-3.127,5.26C308.628,721.563,307.691,721.153,308.015,720.579Z" transform="translate(-286.574 -463.097)" fill="#f2f2f2"/>
    <path id="Path_141" data-name="Path 141" d="M691.372,339.7H500.377a2.223,2.223,0,0,1-2.22-2.22V160.1a2.223,2.223,0,0,1,2.22-2.22H691.372a2.223,2.223,0,0,1,2.22,2.22v177.37a2.223,2.223,0,0,1-2.22,2.22Z" transform="translate(-392.731 -157.884)" fill="#fff"/>
    <path id="Path_141-2" data-name="Path 141" d="M691.372,339.7H500.377a2.223,2.223,0,0,1-2.22-2.22V160.1a2.223,2.223,0,0,1,2.22-2.22H691.372a2.223,2.223,0,0,1,2.22,2.22v177.37a2.223,2.223,0,0,1-2.22,2.22ZM500.377,158.77a1.334,1.334,0,0,0-1.331,1.331V337.475a1.334,1.334,0,0,0,1.331,1.331H691.372a1.333,1.333,0,0,0,1.331-1.331V160.1a1.334,1.334,0,0,0-1.331-1.331Z" transform="translate(-392.731 -157.884)" fill="#cacaca"/>
    <path id="Path_142" data-name="Path 142" d="M705.507,262.185a1.507,1.507,0,0,0,0,3.014h82.7a1.507,1.507,0,0,0,0-3.014Z" transform="translate(-507.612 -216.094)" fill="#e4e4e4"/>
    <path id="Path_143" data-name="Path 143" d="M705.507,282.65a1.507,1.507,0,0,0,0,3.014h42.219a1.507,1.507,0,1,0,0-3.014Z" transform="translate(-507.612 -227.516)" fill="#e4e4e4"/>
    <path id="Path_142-2" data-name="Path 142" d="M541.938,392.705a1.507,1.507,0,0,0,0,3.014H697a1.507,1.507,0,1,0,0-3.014Z" transform="translate(-416.324 -288.938)" fill="#e4e4e4"/>
    <path id="Path_143-2" data-name="Path 143" d="M541.938,413.17a1.507,1.507,0,0,0,0,3.014h114.58a1.507,1.507,0,0,0,0-3.014Z" transform="translate(-416.324 -300.36)" fill="#e4e4e4"/>
    <path id="Path_142-3" data-name="Path 142" d="M541.938,433.172a1.507,1.507,0,0,0,0,3.014H697a1.507,1.507,0,1,0,0-3.014Z" transform="translate(-416.324 -311.523)" fill="#e4e4e4"/>
    <path id="Path_143-3" data-name="Path 143" d="M541.938,453.637a1.507,1.507,0,0,0,0,3.014h114.58a1.507,1.507,0,0,0,0-3.014Z" transform="translate(-416.324 -322.944)" fill="#e4e4e4"/>
    <path id="Path_142-4" data-name="Path 142" d="M541.938,474.172a1.507,1.507,0,0,0,0,3.014H697a1.507,1.507,0,1,0,0-3.014Z" transform="translate(-416.324 -334.405)" fill="#e4e4e4"/>
    <path id="Path_143-4" data-name="Path 143" d="M541.938,494.637a1.507,1.507,0,0,0,0,3.014h114.58a1.507,1.507,0,0,0,0-3.014Z" transform="translate(-416.324 -345.827)" fill="#e4e4e4"/>
    <path id="Path_14602" data-name="Path 14602" d="M572.072,270.134a21.653,21.653,0,1,1,21.653-21.653A21.653,21.653,0,0,1,572.072,270.134Z" transform="translate(-421.898 -196.362)" fill="#a0be1f"/>
    <path id="Path_14603" data-name="Path 14603" d="M424.212,491.02A5.412,5.412,0,0,0,417.6,486l-7.157-10.086-7.19,2.854,10.307,14.1a5.441,5.441,0,0,0,10.648-1.849Z" transform="translate(-339.767 -335.377)" fill="#a0616a"/>
    <path id="Path_14604" data-name="Path 14604" d="M391.761,430.125,370.1,402.03l8.114-25.5c.595-6.412,4.607-8.2,4.777-8.275l.26-.112,7.061,18.83L385.133,400.8l12.725,21.4Z" transform="translate(-321.264 -275.229)" fill="#3f3d56"/>
    <path id="Path_14605" data-name="Path 14605" d="M571.629,312.36a5.412,5.412,0,0,0-4.495,6.976l-9.5,7.916,3.4,6.948L574.3,322.833a5.441,5.441,0,0,0-2.667-10.473Z" transform="translate(-425.924 -244.071)" fill="#a0616a"/>
    <path id="Path_14606" data-name="Path 14606" d="M512.843,337.118l-26.336,23.764-26.053-6.118c-6.438-.1-8.534-3.959-8.62-4.123l-.131-.251,18.228-8.5,14.185,4.1,20.354-14.342Z" transform="translate(-366.804 -254.864)" fill="#3f3d56"/>
    <path id="Path_14607" data-name="Path 14607" d="M227.246,533.966h7.076l3.366-27.293H227.245Z" transform="translate(-126.826 -282.775)" fill="#a0616a"/>
    <path id="Path_14608" data-name="Path 14608" d="M0,0H22.239V8.592h-16A6.239,6.239,0,0,1,0,2.353V0Z" transform="translate(121.142 257.761) rotate(179.997)" fill="#2f2e41"/>
    <path id="Path_14609" data-name="Path 14609" d="M163.246,533.966h7.076l3.366-27.293H163.245Z" transform="translate(-91.107 -282.775)" fill="#a0616a"/>
    <path id="Path_14610" data-name="Path 14610" d="M0,0H22.239V8.592h-16A6.239,6.239,0,0,1,0,2.353Z" transform="translate(92.86 257.761) rotate(179.997)" fill="#2f2e41"/>
    <path id="Path_14611" data-name="Path 14611" d="M157.552,342.991l.577,40.4.578,53.1,12.7-1.154,6.349-73.3,8.081,73.3h13.109l1.32-73.878L195.646,345.3Z" transform="translate(-87.93 -191.424)" fill="#2f2e41"/>
    <path id="Path_14612" data-name="Path 14612" d="M427.729,411.9c-13.816,0-26.534-6.252-26.705-6.338l-.143-.071-1.159-27.825c-.336-.983-6.957-20.385-8.078-26.552-1.136-6.248,15.329-11.731,17.328-12.372l.454-5.026,18.451-1.988,2.339,6.431,6.619,2.482a3.274,3.274,0,0,1,2.029,3.846l-3.679,14.961,8.985,49.5-1.934.084A35.122,35.122,0,0,1,427.729,411.9Z" transform="translate(-333.254 -254.905)" fill="#3f3d56"/>
    <circle id="Ellipse_1495" data-name="Ellipse 1495" cx="13.285" cy="13.285" r="13.285" transform="translate(68.09 55.068) rotate(-28.663)" fill="#a0616a"/>
    <path id="Path_14613" data-name="Path 14613" d="M421.929,285.276a4.384,4.384,0,0,0,7.563-2.435,4.454,4.454,0,0,0-.006-.86c-.17-1.632-1.113-3.114-.887-4.837a2.537,2.537,0,0,1,.464-1.187c2.018-2.7,6.753,1.208,8.657-1.237,1.168-1.5-.2-3.861.691-5.537,1.182-2.212,4.685-1.121,6.881-2.332,2.444-1.348,2.3-5.1.689-7.378a11.605,11.605,0,0,0-8.8-4.479,23.6,23.6,0,0,0-9.942,1.94c-3.6,1.4-7.176,3.345-9.394,6.513-2.7,3.853-2.956,9.033-1.607,13.538C417.062,279.726,419.862,283.074,421.929,285.276Z" transform="translate(-346.57 -212.063)" fill="#2f2e41"/>
    <path id="Path_14614" data-name="Path 14614" d="M428.386,740.847H260.023a.442.442,0,0,1,0-.884H428.386a.442.442,0,1,1,0,.884Z" transform="translate(-259.581 -482.744)" fill="#cacaca"/>
    <path id="Path_14615" data-name="Path 14615" d="M585.62,273.986a1.542,1.542,0,0,1-1.052-.413l-7.14-6.632a1.547,1.547,0,0,1,2.105-2.266l6.048,5.617,11.965-11.965a1.547,1.547,0,1,1,2.187,2.187l-13.019,13.019A1.543,1.543,0,0,1,585.62,273.986Z" transform="translate(-436.696 -213.688)" fill="#fff"/>
  </g>
</svg>
